<svg width="119" height="119" viewBox="0 0 119 119" fill="none" xmlns="http://www.w3.org/2000/svg">
<g clip-path="url(#clip0_2072_209)">
<path d="M32.8166 27.763C41.2083 20.7216 51.8351 17.3674 62.7442 18.3217C73.66 19.2829 83.5374 24.4251 90.5788 32.8166C97.6206 41.2087 100.981 51.8299 100.02 62.7441C99.0589 73.6599 93.9167 83.5374 85.5252 90.5787C77.1336 97.6201 66.5068 100.974 55.5977 100.02C44.6819 99.0588 34.8044 93.9167 27.7631 85.5251C20.7219 77.1338 17.3742 66.5012 18.3287 55.5913C19.2831 44.6817 24.4251 34.8044 32.8166 27.763Z" stroke="white" stroke-width="2"/>
<path d="M54.41 44.0354L74.0081 45.75M74.0081 45.75L39.1445 75.004M74.0081 45.75L73.475 66.0537" stroke="white" stroke-width="2"/>
</g>
<defs>
<clipPath id="clip0_2072_209">
<rect width="84" height="84" fill="white" transform="translate(53.9941 118.342) rotate(-130)"/>
</clipPath>
</defs>
</svg>
