<svg width="80" height="62" viewBox="0 0 80 62" fill="none" xmlns="http://www.w3.org/2000/svg">
<path d="M0.560001 39.712C0.560001 23.662 9.334 9.324 22.602 0.12199L34.372 9.538C27.524 13.176 19.606 22.164 17.68 29.868C18.322 29.44 20.248 29.226 21.96 29.226C30.092 29.226 36.512 35.432 36.512 44.634C36.512 53.836 28.808 61.54 19.606 61.54C9.548 61.54 0.560001 53.622 0.560001 39.712ZM44.216 39.712C44.216 23.662 52.776 9.324 66.044 0.12199L78.028 9.538C71.18 13.176 63.048 22.164 61.336 29.868C61.978 29.44 63.904 29.226 65.616 29.226C73.534 29.226 79.954 35.432 79.954 44.634C79.954 53.836 72.464 61.54 63.048 61.54C52.99 61.54 44.216 53.622 44.216 39.712Z" fill="black"/>
</svg>
